<?xml version="1.0" encoding="UTF-8"?>
<svg id="Layer_2" data-name="Layer 2" xmlns="http://www.w3.org/2000/svg" viewBox="0 0 937.182 763.009">
  <defs>
    <style>
      .cls-1 {
        fill: #fff;
      }
    </style>
  </defs>
  <g id="Layer_2-2" data-name="Layer 2">
    <g>
      <path class="cls-1" d="M634.933,747.113c10.203-42.233,30.748-99.185,76.593-148.851,93.859-101.681,221.052-94.054,223.999-143.07,2.269-37.737-70.927-78.743-132.954-85.264-93.014-9.779-157.397,58.36-170.528,72.258-15.494,16.398-78.284,87.755-62.327,185.289,10.517,64.283,49.734,105.091,65.217,119.638Z"/>
      <path class="cls-1" d="M716.584,704.481c-1.771-13.821-3.507-43.012,11.2-73.958,32.084-67.511,110.034-75.218,114.89-75.616,12.418-1.017,60.229-4.932,83.096,25.29,2.575,3.403,15.973,21.214,9.806,34.684-9.796,21.398-57.758,7.319-109.571,19.51-28.201,6.635-67.457,23.386-109.422,70.09Z"/>
      <path class="cls-1" d="M521.689,455.192c45.707-71.978,52.506-128.934,51.102-166.193-3.363-89.222-56.236-130.975-34.684-203.767,1.311-4.427,21.13-68.229,70.813-82.374,59.541-16.951,138.094,44.216,160.412,111.277,36.969,111.082-80.296,238.512-160.412,294.811-32.659,22.95-63.635,37.236-87.231,46.245Z"/>
      <path class="cls-1" d="M308.328,763.009c32.874-25.591,80.507-68.538,121.393-132.954,76.414-120.391,137.129-328.171,37.574-479.791-15.419-23.483-82.214-125.21-199.431-130.064-72.491-3.002-171.341,30.753-185.602,91.045-22.364,94.549,187.161,153.484,250.634,343.946,38.552,115.682,6.834,230.7-24.568,307.818Z"/>
      <path class="cls-1" d="M291.047,634.391c5.65-20.684,30.036-118.296-26.073-200.876-62.506-91.996-200.902-131.315-245.676-88.154-24.697,23.807-25.719,77.356-2.89,109.832,33.836,48.133,100.752,22.499,176.021,65.479,53.421,30.504,82.684,79.373,98.618,113.72Z"/>
    </g>
  </g>
</svg>